Coordinates
version=1
nRows=19
nColumns=36
inDegrees=yes

Units are S.I. units (second, meters, Newtons, ...)
If the header above contains a line with 'inDegrees', this indicates whether rotational values are in degrees (yes) or radians (no).

endheader
time	pelvis_tilt	pelvis_list	pelvis_rotation	pelvis_tx	pelvis_ty	pelvis_tz	hip_flexion_r	hip_adduction_r	hip_rotation_r	knee_angle_r	knee_angle_r_beta	ankle_angle_r	subtalar_angle_r	mtp_angle_r	hip_flexion_l	hip_adduction_l	hip_rotation_l	knee_angle_l	knee_angle_l_beta	ankle_angle_l	subtalar_angle_l	mtp_angle_l	lumbar_extension	lumbar_bending	lumbar_rotation	arm_flex_r	arm_add_r	arm_rot_r	elbow_flex_r	pro_sup_r	arm_flex_l	arm_add_l	arm_rot_l	elbow_flex_l	pro_sup_l
      0.00000000	     -1.73486961	     -1.00154072	    -12.01255510	     -0.02902254	      1.29089627	      0.02021706	      6.18459312	      3.39367919	      4.45808487	      3.87988180	      0.06771671	     -3.76719733	      9.59733988	     -7.43245225	      4.00268746	     -0.83116356	     -3.91295523	      1.89996692	      0.03316068	     -3.99052797	      5.74198733	     -7.43245225	     -9.68005578	      3.03765849	     -8.11637405	    -33.22649477	     -4.63440602	     -0.01634717	    109.29655470	     99.34065364	    -12.75152940	    -13.70340072	     28.67913084	     43.29926027	     66.85368447
      0.01666670	     -2.31954737	     -0.68449471	    -12.98478365	     -0.03057936	      1.28919177	      0.01946875	      6.18077043	      3.22692145	      6.66379385	      2.49864374	      0.04360956	     -3.37345709	     14.49403426	     -7.44095635	      3.95248331	     -0.85232346	     -6.00625896	      0.89757441	      0.01566563	     -3.83765735	      6.04165993	     -7.44095635	     -6.71573877	      3.30975438	    -12.68186465	    -29.48006817	     -6.60180844	      4.33181928	    122.04783447	    101.42526770	    -16.52753771	    -10.60616713	     20.68710722	     41.09481487	     66.14933981
      0.03333330	     -3.42405987	     -0.38892117	    -14.28327242	     -0.02835755	      1.28363633	      0.02050834	      7.35522366	      3.48934188	      6.86236004	      1.93781364	      0.03382123	     -3.09529464	     15.81038602	     -7.45575107	      5.23252497	     -0.81444815	     -8.39816816	      0.73909565	      0.01289965	     -3.75964192	      5.88664664	     -7.45575107	     -5.00368131	      2.88411408	    -12.96061887	    -28.45628342	     -8.54969570	      8.00582136	    125.07476565	    103.20389267	    -17.70244015	     -9.69903326	     17.66287499	     39.01993818	     68.10574100
      0.05000000	     -3.99302342	     -0.40828266	    -14.85150618	     -0.02937363	      1.28134740	      0.02144848	      7.80285245	      3.72113889	      7.19793454	      1.77575491	      0.03099277	     -3.50500997	     17.30214194	     -7.47979576	      5.74245601	     -0.88798617	     -9.17557168	      0.63477699	      0.01107895	     -3.60960286	      6.29422674	     -7.47979576	     -4.04337059	      2.88939074	    -13.24388066	    -27.76327703	    -10.17982698	     12.36712794	    128.20310427	    103.38080135	    -17.51340688	     -9.90496848	     18.27430920	     37.78377309	     68.95453297
      0.06666670	     -4.57696030	     -0.26321188	    -15.18118361	     -0.02812817	      1.28109986	      0.02102048	      8.34935135	      3.69588192	      7.28207079	      1.76273546	      0.03076554	     -3.71612365	     18.55347733	     -7.49224119	      6.24897066	     -0.89010049	    -10.74392119	      0.63451725	      0.01107442	     -3.56958687	      7.01578099	     -7.49224119	     -3.14033677	      2.83997246	    -13.21782860	    -27.36384517	    -11.94744351	     16.82042021	    130.20047906	    100.61584889	    -16.73074486	    -10.31298820	     21.03894830	     36.78520110	     67.25080665
      0.08333330	     -4.87464200	     -0.07735898	    -15.49148005	     -0.02796357	      1.27860928	      0.02233910	      8.71825758	      3.62621851	      7.46555853	      1.86019368	      0.03246650	     -3.43089508	     18.75208918	     -7.49753033	      6.59137458	     -0.79782337	    -10.90988600	      0.68078826	      0.01188200	     -3.04380869	      7.25132496	     -7.49753033	     -2.46060730	      2.72762041	    -13.33013013	    -26.62544463	    -13.55393751	     21.19218890	    132.22320927	    101.89305475	    -16.29783160	    -10.44256668	     22.18595841	     36.08466042	     65.33291876
      0.10000000	     -5.12402601	      0.06432486	    -15.44641209	     -0.02698870	      1.27954732	      0.02217313	      8.99471261	      3.53838841	      7.15695976	      1.88542680	      0.03290691	     -2.66638594	     19.04246809	     -7.49923502	      6.91176975	     -0.78518101	    -11.52005073	      0.69758432	      0.01217514	     -2.24010080	      7.60668336	     -7.49923502	     -1.80456998	      2.56842166	    -13.25769376	    -27.14495225	    -14.47196693	     23.23908850	    132.03274814	    100.32568866	    -15.62936459	    -10.67598980	     23.74467302	     35.48948831	     63.16190920
      0.11666670	     -5.15440140	      0.29145192	    -15.63433425	     -0.02639707	      1.27848712	      0.02269742	      9.09772724	      3.29572510	      6.88316740	      2.06070917	      0.03596616	     -2.27106313	     18.96978981	     -7.49972935	      6.95078215	     -0.61323607	    -11.64197992	      0.77630640	      0.01354910	     -2.08683414	      7.98711371	     -7.49972935	     -1.35831542	      2.25879769	    -13.57862323	    -26.73627251	    -15.77030024	     26.89850699	    131.82683177	     90.41105659	    -15.73585522	    -10.61358890	     23.24740212	     35.46891991	     61.08295326
      0.13333330	     -5.24331264	      0.44533802	    -15.57402851	     -0.02712007	      1.28297135	      0.02188918	      9.29262843	      3.13906324	      6.44305837	      2.14171664	      0.03738001	     -1.86579811	     18.90497271	     -7.49973461	      7.12158614	     -0.46910521	    -11.83861982	      0.79412420	      0.01386008	     -1.69821922	      8.75418790	     -7.49973461	     -1.08725194	      2.07257199	    -13.71980302	    -27.37356926	    -16.21928132	     27.38243363	    130.37542158	     91.23663153	    -15.33937059	    -10.77655142	     23.39493734	     35.45912838	     60.96638966
      0.15000000	     -5.11862855	      0.46514773	    -15.68387957	     -0.02511175	      1.28181768	      0.02339339	      9.14690839	      3.15314872	      6.26385913	      2.17836175	      0.03801958	     -1.78616425	     19.03945551	     -7.49986864	      6.94999409	     -0.43115379	    -12.13107729	      0.75865370	      0.01324101	     -1.43440400	      9.58151988	     -7.49986864	     -0.91020562	      1.93546247	    -13.40165584	    -27.41947338	    -17.08984948	     29.42101187	    128.80390100	     98.39412235	    -14.65990059	    -11.04006879	     25.12452900	     34.98355760	     57.45186403
      0.16666670	     -5.12564293	      0.47867729	    -15.92106329	     -0.02746760	      1.27826797	      0.02228278	      9.27125493	      3.17101121	      5.92604296	      2.42044135	      0.04224467	     -1.30749655	     19.02008621	     -7.49989333	      7.00318397	     -0.42189832	    -12.12459648	      0.77834310	      0.01358465	     -0.72873124	     10.19333813	     -7.49989333	     -0.99400987	      1.69954364	    -12.35976588	    -28.65045535	    -18.01196810	     30.33732607	    123.54686269	     95.38322443	    -13.60481774	    -11.30282040	     25.60477327	     34.84318520	     57.08702598
      0.18333330	     -5.03768214	      0.40480091	    -15.95613690	     -0.02577511	      1.28023551	      0.02434407	      9.09822247	      3.27625139	      5.92322571	      2.47451323	      0.04318840	     -1.51804279	     19.16967803	     -7.49996205	      6.87449885	     -0.49005807	    -12.25216375	      0.81406908	      0.01420819	     -0.89657826	     10.16428901	     -7.49996205	     -0.85419731	      1.72706637	    -12.28023440	    -27.92235417	    -19.17018805	     34.15895290	    122.65265194	     95.79617903	    -13.10342319	    -11.30911022	     25.80211447	     34.53159148	     54.56440591
      0.20000000	     -4.97490595	      0.40145023	    -16.09406164	     -0.02418120	      1.28172824	      0.02410381	      8.93699511	      3.24679514	      6.03738389	      2.60658621	      0.04549351	     -1.71797928	     19.56830508	     -7.49998614	      6.77855679	     -0.49916185	    -12.27739100	      0.83108016	      0.01450509	     -1.19071261	     10.35416008	     -7.49998614	     -0.64149614	      1.71667782	    -12.18069929	    -26.57858776	    -20.83186802	     39.59322308	    122.11229535	     94.19721997	    -12.70174459	    -11.21202700	     25.59458160	     34.24768062	     53.52560896
      0.21666670	     -4.82786134	      0.33005847	    -16.20452485	     -0.02636804	      1.28114361	      0.02576608	      8.77713166	      3.35562925	      5.98027896	      2.63405003	      0.04597285	     -1.61289915	     20.14664855	     -7.49999394	      6.58598373	     -0.58864800	    -12.59855038	      0.87796209	      0.01532333	     -1.20133705	     10.64472848	     -7.49999394	     -0.61790293	      1.65699279	    -11.89205341	    -24.77271206	    -22.34749331	     46.18741468	    121.40917309	     87.11564040	    -12.02533157	    -11.33784375	     25.63613330	     34.03378422	     54.33765690
      0.23333330	     -4.80759289	      0.22030274	    -16.20740415	     -0.02462861	      1.28191654	      0.02617889	      8.51690083	      3.44839959	      6.42957463	      2.63627450	      0.04601167	     -1.88983693	     20.53846073	     -7.49999723	      6.48187402	     -0.74723811	    -12.29172940	      0.88550858	      0.01545504	     -1.18059937	     10.31884775	     -7.49999723	     -0.42860817	      1.74598441	    -11.61858188	    -21.58152873	    -24.13948190	     55.88497193	    120.83007568	     90.29629505	    -11.27117779	    -11.21611231	     26.03439825	     33.46698507	     51.83456934
      0.25000000	     -4.80652492	      0.19698475	    -16.28511217	     -0.02456958	      1.27673091	      0.02706199	      8.46467841	      3.50966004	      6.78353155	      2.62769505	      0.04586193	     -1.51590542	     20.89190199	     -7.49999770	      6.45147623	     -0.84779646	    -12.52684014	      0.89057553	      0.01554348	     -0.77760416	     10.27651296	     -7.49999770	     -0.24865990	      1.81674984	    -10.64998348	    -16.90602106	    -25.44383242	     70.14482742	    120.76408439	     89.91566672	    -10.09812917	    -11.56152719	     28.08804753	     33.13363044	     51.61178601
      0.26666670	     -4.76055752	      0.18122793	    -16.31171711	     -0.02604118	      1.27984221	      0.02874328	      8.42066655	      3.56614094	      6.85918056	      2.49240114	      0.04350061	     -1.36955366	     21.12627084	     -7.49999854	      6.35299577	     -0.91490573	    -12.37959565	      0.88290503	      0.01540960	     -0.46377291	     10.27810743	     -7.49999854	     -0.10537444	      1.86522453	    -10.23027878	     -9.70460290	    -25.03709221	     89.48436187	    121.62736384	     86.56553851	     -9.32681296	    -11.65411857	     28.47891007	     33.04902329	     50.76053336
      0.28333330	     -4.87736997	      0.26753738	    -16.32880118	     -0.02537698	      1.28123354	      0.02958446	      8.49411626	      3.56411491	      6.83120898	      2.38405100	      0.04160954	     -1.52397985	     21.30088798	     -7.49999957	      6.51318693	     -0.96362032	    -12.49146688	      0.87034580	      0.01519040	     -0.37377167	     10.18908978	     -7.49999957	     -0.03952897	      0.81230051	     -8.84041047	     -3.23866646	    -22.70383186	    109.82082688	    111.97551472	     79.04879150	     -7.97175126	    -11.76010466	     28.39141662	     32.18997066	     52.11175417
      0.30000000	     -4.97903117	      0.33079373	    -16.26285134	     -0.02514601	      1.27594913	      0.03201041	      8.56814165	      3.63962618	      6.84204611	      2.33522040	      0.04075728	     -1.39134741	     21.23234967	     -7.49999966	      6.66220042	     -0.99213860	    -12.60866214	      0.86934830	      0.01517299	      0.03266011	     10.22814498	     -7.49999966	      0.36596038	      0.11006853	     -7.90752635	      0.78260311	    -17.99064500	    126.84061691	    104.80900189	     76.70039476	     -6.78031158	    -12.16991819	     30.00362630	     31.79641007	     53.15421219
